<?xml version="1.0" standalone="no"?>
<!DOCTYPE svg PUBLIC "-//W3C//DTD SVG 20010904//EN"
 "http://www.w3.org/TR/2001/REC-SVG-20010904/DTD/svg10.dtd">
<svg version="1.0" xmlns="http://www.w3.org/2000/svg"
 width="648.000000pt" height="648.000000pt" viewBox="0 0 648.000000 648.000000"
 preserveAspectRatio="xMidYMid meet">
<metadata>
Created by potrace 1.14, written by Peter Selinger 2001-2017
</metadata>
<g transform="translate(0.000000,648.000000) scale(0.100000,-0.100000)"
fill="#000000" stroke="none">
<path d="M1957 6084 c-1 -1 -51 -4 -112 -8 -122 -6 -193 -13 -214 -21 -8 -3
-30 -8 -50 -11 -73 -11 -271 -71 -351 -106 -127 -56 -224 -106 -307 -158 -106
-67 -93 -57 -207 -156 -79 -69 -119 -109 -194 -193 -134 -153 -280 -410 -352
-621 -12 -36 -25 -72 -28 -80 -3 -8 -6 -19 -7 -25 -2 -5 -12 -46 -23 -90 -11
-44 -25 -105 -31 -135 -6 -30 -14 -66 -16 -80 -26 -130 -37 -466 -20 -625 4
-38 8 -83 10 -100 1 -16 5 -43 8 -60 4 -16 9 -46 11 -65 3 -19 7 -45 11 -57 5
-22 7 -33 20 -93 18 -85 23 -104 25 -107 2 -2 3 -6 4 -10 18 -75 81 -258 123
-358 45 -106 142 -303 153 -310 6 -3 8 -11 5 -16 -4 -5 -3 -9 2 -9 4 0 14 -13
21 -29 26 -58 191 -299 288 -421 125 -156 278 -319 434 -460 27 -24 243 -199
346 -279 43 -34 318 -211 394 -254 19 -11 69 -39 110 -62 105 -59 341 -175
357 -175 7 0 13 -4 13 -10 0 -5 8 -10 18 -10 10 0 23 -5 29 -11 6 -6 17 -11
24 -13 8 -1 35 -12 61 -23 25 -12 57 -24 70 -28 12 -4 28 -11 33 -15 6 -4 24
-12 40 -18 17 -5 62 -22 100 -37 140 -52 530 -179 590 -191 6 -1 46 -12 90
-24 44 -12 91 -24 104 -26 13 -3 67 -16 120 -29 53 -13 107 -26 121 -29 14 -3
52 -12 85 -20 33 -9 65 -15 72 -16 6 0 21 42 34 98 12 53 24 102 25 107 2 6 5
19 7 30 3 11 10 38 16 60 5 22 13 55 16 74 3 19 8 37 10 41 2 3 6 17 8 31 3
13 17 73 31 132 14 60 26 112 26 117 0 6 -17 12 -80 26 -9 2 -90 22 -180 44
-91 22 -174 42 -185 45 -88 18 -572 166 -600 183 -5 4 -14 7 -20 8 -53 9 -467
192 -622 275 -44 24 -105 57 -135 73 -29 15 -60 34 -68 40 -8 7 -44 29 -80 51
-58 34 -271 182 -323 224 -154 124 -339 298 -434 407 -23 27 -54 63 -68 79
-14 17 -54 68 -88 115 -33 47 -64 87 -67 90 -17 15 -136 223 -178 312 -181
376 -254 752 -218 1114 7 73 8 84 26 169 6 28 12 59 14 71 14 70 115 329 135
344 3 3 12 16 19 30 17 35 31 56 80 122 248 332 725 505 1137 413 39 -8 80
-18 93 -20 21 -5 104 -36 147 -54 54 -24 161 -77 165 -82 3 -3 12 -8 20 -12 8
-4 31 -17 51 -29 181 -114 319 -241 499 -461 14 -17 44 -52 68 -78 l42 -47
181 179 c99 98 184 179 188 179 4 0 23 14 42 31 52 47 242 171 349 227 165 87
374 161 500 177 123 16 220 22 220 15 0 -3 24 -5 53 -4 153 3 419 -92 546
-195 74 -59 166 -166 210 -245 12 -20 29 -51 39 -68 21 -36 94 -238 87 -238
-2 0 0 -11 4 -24 34 -87 32 -381 -4 -514 -7 -29 -11 -52 -8 -52 3 0 1 -6 -5
-12 -6 -7 -11 -17 -12 -23 -5 -23 -8 -32 -20 -70 -7 -22 -27 -69 -43 -105 -17
-36 -30 -68 -29 -72 1 -3 -5 -12 -13 -18 -8 -7 -15 -17 -15 -22 0 -16 -125
-199 -172 -252 -65 -74 -126 -135 -198 -197 -73 -63 -223 -169 -239 -169 -6 0
-11 -4 -11 -8 0 -10 -50 -37 -62 -34 -5 1 -8 -2 -8 -6 0 -7 -37 -30 -60 -37
-5 -2 -157 -72 -205 -95 -29 -14 -286 -99 -315 -104 -14 -2 -26 -5 -27 -7 -2
-1 -6 -2 -10 -3 -13 -3 -127 -29 -138 -32 -119 -23 -174 -33 -232 -39 -36 -4
-99 -14 -128 -19 -33 -6 -97 -15 -150 -22 -62 -8 -65 -9 -59 -37 3 -12 7 -38
8 -58 2 -20 6 -50 10 -65 9 -46 18 -106 21 -144 3 -35 11 -92 20 -140 5 -24
13 -84 20 -145 2 -16 6 -39 9 -50 2 -11 5 -34 5 -52 1 -25 5 -31 19 -29 9 2
42 7 72 11 30 4 63 9 74 11 10 2 44 6 75 10 31 3 65 8 76 10 74 15 139 23 146
18 5 -3 9 -1 9 3 0 5 10 9 23 10 39 2 246 47 360 78 9 3 25 7 35 9 52 13 203
65 322 111 306 119 594 291 830 496 104 90 215 205 294 304 26 33 53 67 60 76
7 8 21 30 32 47 10 18 22 32 26 32 4 0 8 5 8 10 0 6 17 37 38 68 86 130 186
353 237 529 27 93 29 102 47 193 11 56 13 69 24 175 14 119 7 374 -13 480 -3
17 -7 40 -8 52 -2 11 -6 29 -9 40 -3 10 -8 33 -11 52 -3 19 -10 42 -16 52 -5
11 -8 19 -5 19 11 0 -69 212 -116 304 -44 88 -149 262 -167 276 -3 3 -19 23
-36 45 -32 44 -210 224 -265 268 -52 41 -190 122 -288 168 -85 40 -299 115
-351 124 -14 2 -46 8 -71 14 -164 34 -432 42 -596 16 -16 -3 -47 -7 -68 -11
-22 -3 -82 -17 -135 -30 -53 -13 -106 -27 -118 -29 -27 -6 -152 -49 -208 -72
-48 -19 -311 -148 -340 -166 -86 -53 -127 -77 -134 -77 -5 0 -11 -4 -13 -8 -1
-4 -37 -31 -78 -59 l-74 -52 -31 24 c-58 47 -263 185 -274 185 -6 0 -11 3 -11
8 0 4 -10 12 -23 18 -12 6 -66 34 -119 62 -54 28 -98 48 -98 45 0 -3 -10 1
-22 9 -20 13 -126 56 -153 61 -5 2 -14 5 -20 8 -9 6 -52 18 -82 25 -6 1 -27 7
-45 13 -56 17 -249 51 -323 56 -38 3 -85 6 -103 8 -18 2 -34 2 -35 1z"/>
</g>
</svg>
